<?xml version="1.0" encoding="iso-8859-1"?>
<!-- Uploaded to: SVG Repo, www.svgrepo.com, Generator: SVG Repo Mixer Tools -->
<svg height="800px" width="800px" version="1.1" id="Layer_1" xmlns="http://www.w3.org/2000/svg" xmlns:xlink="http://www.w3.org/1999/xlink" 
	 viewBox="0 0 512 512" xml:space="preserve">
<path d="M256,0C114.616,0,0,114.616,0,256s114.616,256,256,256s256-114.616,256-256S397.384,0,256,0z"/>
<path style="fill:#999999;" d="M256,72c-56.544,59.416-150.456,46-150.456,46s0,66.128,0,161S256,440,256,440
	s150.456-66.128,150.456-161s0-161,0-161S312.544,131.416,256,72z"/>
<g>
	<path style="fill:#FFFFFF;" d="M165.816,280.648l-9.136-73.304h16.208l3.264,34.92c0.76,7.72,1.304,14.896,1.736,22.512h0.224
		c2.72-7.184,6.2-15.008,9.784-22.624l16.424-34.8h17.504l-37.848,73.304h-18.16V280.648z"/>
	<path style="fill:#FFFFFF;" d="M245.792,207.344l-13.92,73.304h-15.664l13.92-73.304L245.792,207.344L245.792,207.344z"/>
	<path style="fill:#FFFFFF;" d="M249.504,263.68c4.36,2.616,10.552,4.672,17.296,4.672c6.096,0,11.632-2.824,11.632-8.592
		c0-4.136-3.152-6.856-9.888-10.336c-7.84-4.24-15.232-9.888-15.232-19.464c0-14.792,12.944-23.824,28.928-23.824
		c8.92,0,14.144,1.96,17.296,3.704l-4.896,13.056c-2.392-1.312-7.608-3.376-13.696-3.264c-7.288,0-11.096,3.704-11.096,7.72
		c0,4.24,4.464,6.856,10.664,10.336c8.92,4.672,14.568,10.656,14.568,19.36c0,16.312-13.488,24.688-29.8,24.688
		c-10.216,0-17.504-2.616-20.984-5.224L249.504,263.68z"/>
	<path style="fill:#FFFFFF;" d="M321.424,261.624l-8.704,19.032h-16.64l35.672-73.304h20.12l8.6,73.304h-16.424l-1.52-19.032
		H321.424z M341.872,249.656l-1.416-15.768c-0.328-4.024-0.76-9.904-1.088-14.352h-0.216c-1.848,4.456-3.92,10.112-5.88,14.352
		l-7.288,15.768H341.872z"/>
</g>
</svg>