<?xml version="1.0" encoding="iso-8859-1"?>
<!-- Uploaded to: SVG Repo, www.svgrepo.com, Generator: SVG Repo Mixer Tools -->
<svg height="800px" width="800px" version="1.1" id="Layer_1" xmlns="http://www.w3.org/2000/svg" xmlns:xlink="http://www.w3.org/1999/xlink" 
	 viewBox="0 0 512 512" xml:space="preserve">
<path d="M256,0C114.616,0,0,114.616,0,256s114.616,256,256,256s256-114.616,256-256S397.384,0,256,0z"/>
<path style="fill:#F00000;" d="M256,72c-56.544,59.416-150.456,46-150.456,46s0,66.128,0,161S256,440,256,440
	s150.456-66.128,150.456-161s0-161,0-161S312.544,131.416,256,72z"/>
<g>
	<path style="fill:#FFFFFF;" d="M250.656,284.096v-32.008c-9.984-2.856-17.304-7.168-21.968-12.952
		c-4.656-5.784-6.992-12.8-6.992-21.048c0-8.352,2.632-15.368,7.904-21.048c5.272-5.68,12.288-8.952,21.048-9.816v-7.56h11.08v7.56
		c8.096,0.968,14.544,3.728,19.328,8.288s7.84,10.656,9.168,18.296l-19.328,2.528c-1.176-6.008-4.232-10.088-9.168-12.224v29.872
		c12.224,3.312,20.552,7.6,24.984,12.872c4.432,5.264,6.648,12.032,6.648,20.28c0,9.216-2.792,16.992-8.368,23.304
		c-5.576,6.312-13.328,10.184-23.264,11.616v14.288h-11.08V302.44c-8.816-1.064-15.968-4.352-21.472-9.856
		c-5.504-5.496-9.016-13.264-10.544-23.304l19.944-2.136c0.816,4.072,2.336,7.592,4.584,10.544
		C245.408,280.632,247.896,282.776,250.656,284.096z M250.656,203.88c-3.008,1.016-5.4,2.752-7.184,5.2
		c-1.784,2.448-2.672,5.144-2.672,8.096c0,2.696,0.816,5.208,2.448,7.528s4.104,4.192,7.416,5.616v-26.44H250.656z M261.728,285.168
		c3.816-0.712,6.92-2.488,9.32-5.312c2.392-2.824,3.592-6.152,3.592-9.968c0-3.408-1.008-6.352-3.016-8.824
		c-2.008-2.472-5.304-4.368-9.888-5.688v29.792H261.728z"/>
	<path style="fill:#FFFFFF;" d="M341.424,271.936v-21.224c-6.624-1.888-11.472-4.752-14.568-8.584
		c-3.088-3.832-4.632-8.488-4.632-13.96c0-5.536,1.744-10.192,5.24-13.96c3.496-3.76,8.144-5.936,13.96-6.512v-5.016h7.344v5.016
		c5.368,0.64,9.64,2.472,12.816,5.496c3.168,3.024,5.2,7.064,6.08,12.128l-12.816,1.672c-0.776-3.984-2.808-6.688-6.08-8.104v19.808
		c8.104,2.2,13.624,5.04,16.56,8.536s4.408,7.976,4.408,13.448c0,6.112-1.848,11.264-5.552,15.456
		c-3.696,4.184-8.84,6.752-15.424,7.696v9.472h-7.344v-9.224c-5.848-0.704-10.584-2.888-14.232-6.536
		c-3.648-3.648-5.976-8.792-6.992-15.448l13.224-1.416c0.536,2.704,1.552,5.032,3.04,6.992
		C337.944,269.64,339.6,271.056,341.424,271.936z M341.424,218.744c-1.992,0.672-3.584,1.824-4.76,3.448
		c-1.184,1.624-1.776,3.408-1.776,5.368c0,1.792,0.536,3.456,1.624,4.992c1.08,1.536,2.72,2.776,4.912,3.728L341.424,218.744
		L341.424,218.744z M348.768,272.648c2.528-0.472,4.592-1.648,6.176-3.52c1.584-1.872,2.384-4.08,2.384-6.608
		c0-2.264-0.672-4.208-2-5.848c-1.336-1.64-3.52-2.896-6.56-3.776V272.648z"/>
	<path style="fill:#FFFFFF;" d="M163.488,271.936v-21.224c-6.624-1.888-11.472-4.752-14.568-8.584
		c-3.088-3.832-4.632-8.488-4.632-13.96c0-5.536,1.744-10.192,5.24-13.96c3.496-3.76,8.144-5.936,13.96-6.512v-5.016h7.344v5.016
		c5.368,0.64,9.64,2.472,12.816,5.496c3.168,3.024,5.2,7.064,6.08,12.128l-12.816,1.672c-0.776-3.984-2.808-6.688-6.08-8.104v19.808
		c8.104,2.2,13.624,5.04,16.56,8.536s4.408,7.976,4.408,13.448c0,6.112-1.848,11.264-5.552,15.456
		c-3.696,4.184-8.84,6.752-15.424,7.696v9.472h-7.344v-9.224c-5.848-0.704-10.584-2.888-14.232-6.536s-5.976-8.792-6.992-15.448
		l13.224-1.416c0.536,2.704,1.552,5.032,3.04,6.992C160.008,269.64,161.664,271.056,163.488,271.936z M163.488,218.744
		c-1.992,0.672-3.584,1.824-4.76,3.448c-1.184,1.624-1.776,3.408-1.776,5.368c0,1.792,0.536,3.456,1.624,4.992
		c1.08,1.536,2.72,2.776,4.912,3.728V218.744z M170.832,272.648c2.528-0.472,4.592-1.648,6.176-3.52
		c1.584-1.872,2.384-4.08,2.384-6.608c0-2.264-0.672-4.208-2-5.848c-1.336-1.64-3.52-2.896-6.56-3.776V272.648z"/>
</g>
</svg>